<?xml version="1.0" standalone="no"?>
<!DOCTYPE svg PUBLIC "-//W3C//DTD SVG 20010904//EN"
 "http://www.w3.org/TR/2001/REC-SVG-20010904/DTD/svg10.dtd">
<svg version="1.0" xmlns="http://www.w3.org/2000/svg"
 width="500.000000pt" height="500.000000pt" viewBox="0 0 500.000000 500.000000"
 preserveAspectRatio="xMidYMid meet">

<g transform="translate(0.000000,500.000000) scale(0.100000,-0.100000)"
fill="#000000" stroke="none">
<path d="M2245 3258 c-89 -48 -49 -151 115 -294 78 -67 227 -231 257 -281 15
-27 22 -50 18 -62 -8 -25 -56 -35 -126 -29 -92 9 -140 82 -174 264 -19 99 -31
135 -48 146 -22 14 -57 8 -74 -11 -16 -19 -17 -19 -35 5 -15 19 -29 24 -64 24
-57 0 -173 -32 -293 -81 -97 -40 -115 -40 -109 1 4 28 66 54 293 121 93 28
173 55 176 61 13 21 -7 73 -33 85 -22 11 -52 6 -229 -37 -221 -53 -313 -82
-339 -105 -9 -8 -90 -33 -180 -55 -168 -42 -167 -41 -215 -105 -16 -20 -11
-54 9 -67 18 -12 39 -9 162 22 64 17 119 28 122 26 8 -9 -51 -100 -97 -149
-113 -121 -261 -151 -292 -60 -25 78 16 193 103 288 82 89 203 137 343 134 37
-1 75 6 100 16 22 10 117 37 210 61 107 27 149 41 115 38 -63 -7 -179 -34
-262 -63 l-56 -19 -6 23 c-11 42 -122 63 -242 45 -291 -43 -512 -323 -414
-524 36 -76 96 -129 162 -145 126 -30 246 14 368 137 l78 78 6 -46 c3 -25 8
-85 12 -134 5 -67 12 -94 25 -107 11 -11 19 -23 19 -29 0 -18 36 -29 71 -21
20 5 80 26 135 49 107 43 232 84 331 106 61 14 62 14 68 -7 28 -104 52 -140
82 -121 13 8 38 41 38 51 0 1 25 -7 55 -17 141 -49 282 -7 318 95 10 28 10 27
11 -22 1 -40 7 -58 26 -81 14 -17 25 -34 25 -40 0 -25 79 -18 139 12 48 25
215 84 308 109 l92 25 60 -28 c34 -16 61 -35 61 -43 0 -7 11 -24 24 -36 20
-19 32 -22 67 -18 24 3 45 9 46 14 2 6 32 4 76 -4 107 -21 212 -12 278 24 64
34 89 72 89 135 0 109 -87 244 -289 449 -113 114 -158 154 -201 173 -62 29
-113 33 -150 11 -14 -8 -35 -19 -47 -24 -11 -5 -24 -14 -27 -20 -4 -6 -17 -4
-35 5 -26 13 -45 10 -232 -36 -112 -27 -223 -56 -246 -64 -34 -12 -43 -12 -43
-2 0 14 72 36 263 82 65 16 114 30 108 32 -19 6 -180 -28 -272 -58 -50 -17
-92 -30 -94 -30 -1 0 -6 16 -9 35 -4 19 -15 39 -26 45 -51 27 -90 -3 -90 -69
l0 -43 -47 35 c-72 52 -165 96 -251 117 -89 23 -91 23 -117 8z m1134 -316 c18
-90 30 -166 28 -168 -2 -3 -10 2 -17 11 -7 8 -27 15 -45 15 -35 0 -172 -45
-336 -111 -55 -21 -104 -39 -109 -39 -6 0 -10 18 -10 40 0 37 3 41 48 64 69
35 217 82 313 101 86 16 119 35 119 67 0 18 -35 76 -55 90 -33 24 -186 -8
-340 -72 -102 -43 -119 -42 -113 5 3 16 31 29 163 72 259 85 310 100 316 94 3
-3 21 -80 38 -169z m-856 90 c26 -11 68 -41 95 -66 39 -36 51 -56 56 -87 4
-26 17 -52 35 -70 23 -22 30 -40 35 -86 l6 -58 -15 39 c-21 56 -53 94 -193
238 -132 134 -133 140 -19 90z m904 -170 c27 -106 44 -187 37 -180 -10 11 -40
123 -88 327 -8 35 -11 60 -7 55 5 -5 31 -96 58 -202z m228 95 c129 -97 299
-316 281 -362 -2 -7 -29 -18 -58 -24 -56 -12 -112 -6 -213 24 l-51 14 -33 183
c-17 101 -35 196 -38 211 l-6 29 30 -15 c16 -9 56 -36 88 -60z m-1452 -119 c5
-35 4 -38 -18 -38 -30 0 -171 -47 -325 -109 -113 -45 -120 -47 -120 -27 0 12
-3 30 -6 42 -5 17 5 25 63 52 99 45 174 70 288 93 55 11 102 22 104 25 6 6 8
3 14 -38z m-273 -1 c-120 -53 -154 -66 -158 -62 -11 11 14 24 88 48 80 27 111
33 70 14z m1149 -1 c-7 -7 -153 -66 -155 -63 -9 9 19 27 71 45 55 19 94 27 84
18z m-1517 -74 c-73 -101 -238 -216 -327 -227 -34 -5 -32 -3 14 10 107 30 230
120 295 214 16 23 31 39 34 37 2 -3 -5 -18 -16 -34z m205 -323 c-21 -11 -46
-19 -55 -17 -10 2 1 11 28 20 62 22 73 21 27 -3z m1167 7 c-11 -8 -34 -17 -50
-20 -25 -5 -23 -3 11 14 47 23 68 26 39 6z"/>
<path d="M2185 2252 c-30 -6 -45 -22 -45 -48 0 -26 26 -44 65 -44 39 0 65 18
65 44 0 36 -39 57 -85 48z m53 -44 c2 -12 -5 -19 -23 -24 -31 -8 -50 7 -41 31
8 22 60 16 64 -7z"/>
<path d="M2000 2241 c0 -5 9 -11 20 -14 15 -4 20 -14 20 -36 0 -21 5 -31 15
-31 10 0 15 11 15 35 0 24 5 35 15 35 8 0 15 5 15 10 0 6 -22 10 -50 10 -27 0
-50 -4 -50 -9z"/>
<path d="M2310 2217 c0 -42 15 -57 56 -57 40 0 64 22 64 61 0 22 -5 29 -19 29
-15 0 -21 -8 -23 -32 -2 -25 -8 -33 -23 -33 -15 0 -21 8 -23 33 -4 44 -32 44
-32 -1z"/>
<path d="M2470 2205 c0 -33 4 -45 15 -45 8 0 15 7 15 15 0 8 6 15 14 15 7 0
19 -7 26 -15 13 -16 50 -21 50 -6 0 5 -7 12 -16 15 -13 5 -14 9 -4 21 23 28 4
45 -50 45 l-50 0 0 -45z m80 15 c0 -5 -11 -10 -25 -10 -14 0 -25 5 -25 10 0 6
11 10 25 10 14 0 25 -4 25 -10z"/>
<path d="M2620 2205 c0 -38 3 -45 20 -45 17 0 20 7 20 45 0 38 -3 45 -20 45
-17 0 -20 -7 -20 -45z"/>
<path d="M2704 2235 c-8 -19 3 -35 24 -35 9 0 24 -5 32 -11 11 -8 6 -9 -23 -5
-27 3 -37 1 -34 -7 6 -19 81 -21 97 -2 17 20 4 34 -42 45 l-33 8 38 1 c53 1
46 21 -8 21 -31 0 -47 -5 -51 -15z"/>
<path d="M2840 2205 c0 -38 3 -45 20 -45 14 0 20 7 21 23 l0 22 11 -22 c6 -13
19 -23 28 -23 9 0 22 10 28 23 l11 22 0 -22 c1 -16 7 -23 21 -23 17 0 20 7 20
45 0 41 -2 45 -25 45 -17 0 -29 -8 -37 -25 -6 -14 -14 -25 -18 -25 -4 0 -12
11 -18 25 -8 17 -20 25 -37 25 -23 0 -25 -4 -25 -45z"/>
</g>
</svg>
